<?xml version="1.0" standalone="no"?>
<!DOCTYPE svg PUBLIC "-//W3C//DTD SVG 20010904//EN"
 "http://www.w3.org/TR/2001/REC-SVG-20010904/DTD/svg10.dtd">
<svg version="1.0" xmlns="http://www.w3.org/2000/svg"
 width="1080.000000pt" height="1080.000000pt" viewBox="0 0 1080.000000 1080.000000"
 preserveAspectRatio="xMidYMid meet">

<g transform="translate(0.000000,1080.000000) scale(0.100000,-0.100000)"
fill="#000000" stroke="none">
<path d="M4110 7200 c-12 -8 -16 -45 -18 -214 -2 -135 1 -212 8 -226 12 -22
49 -27 68 -8 15 15 17 410 2 439 -12 20 -36 24 -60 9z"/>
<path d="M4742 7198 c-9 -9 -12 -72 -12 -224 0 -228 3 -239 52 -232 l23 3 3
219 c2 153 -1 223 -9 232 -14 17 -41 18 -57 2z"/>
<path d="M6001 7196 c-8 -9 -11 -79 -9 -232 l3 -219 23 -3 c49 -7 52 4 52 232
0 218 -3 236 -41 236 -9 0 -22 -6 -28 -14z"/>
<path d="M6631 7196 c-8 -9 -11 -79 -9 -232 l3 -219 35 0 35 0 3 219 c2 226
-1 246 -38 246 -10 0 -23 -6 -29 -14z"/>
<path d="M3750 6901 c-75 -23 -141 -80 -171 -146 -16 -34 -19 -67 -19 -212 l0
-173 1840 0 1840 0 0 168 c0 154 -2 171 -24 218 -28 60 -91 117 -154 138 -28
10 -81 16 -139 16 l-93 0 0 -94 c0 -80 -3 -98 -22 -126 -77 -112 -219 -112
-295 0 -20 28 -23 46 -23 126 l0 94 -144 0 -144 0 -4 -98 c-3 -90 -5 -102 -31
-135 -36 -48 -77 -68 -135 -68 -118 -1 -173 64 -180 214 l-4 87 -448 0 -448 0
-4 -87 c-5 -95 -20 -135 -65 -178 -50 -45 -155 -50 -211 -8 -57 42 -67 67 -70
174 l-4 99 -144 0 -144 0 0 -87 c0 -73 -4 -95 -23 -127 -41 -72 -109 -101
-191 -84 -93 21 -136 88 -136 216 l0 82 -92 -1 c-51 0 -104 -4 -118 -8z"/>
<path d="M3560 5008 c0 -1163 1 -1225 19 -1263 23 -52 74 -103 126 -126 38
-18 113 -19 1685 -19 1129 0 1657 3 1683 11 52 14 115 73 143 134 l24 50 0
1218 0 1217 -1840 0 -1840 0 0 -1222z m939 908 c12 -11 21 -31 21 -46 0 -15
-9 -35 -21 -46 -19 -17 -42 -19 -268 -22 -153 -2 -258 1 -274 7 -57 22 -55 99
2 120 15 6 131 9 272 8 227 -2 249 -4 268 -21z m1200 0 c12 -11 21 -31 21 -46
0 -15 -9 -35 -21 -46 -19 -17 -42 -19 -268 -22 -153 -2 -258 1 -274 7 -57 22
-55 99 2 120 15 6 131 9 272 8 227 -2 249 -4 268 -21z m1160 0 c25 -22 28 -68
6 -90 -25 -24 -66 -28 -317 -24 -195 2 -240 6 -252 18 -32 33 -20 93 22 109
16 6 126 9 273 8 227 -2 249 -4 268 -21z m-808 -427 c59 -20 88 -59 176 -234
46 -93 88 -174 93 -178 4 -5 93 -22 196 -37 104 -16 201 -33 215 -38 36 -14
86 -75 98 -119 6 -20 8 -55 4 -78 -5 -35 -25 -59 -161 -197 l-155 -157 33
-187 c19 -109 30 -205 27 -230 -9 -82 -82 -147 -167 -148 -48 -1 -50 0 -300
129 l-115 59 -183 -95 c-159 -82 -189 -94 -231 -93 -85 1 -159 66 -168 147 -3
24 9 125 27 230 l32 189 -150 151 c-124 126 -152 159 -161 195 -20 74 19 161
90 198 16 8 114 27 218 43 104 16 194 32 200 36 7 4 49 84 95 178 48 99 96
183 112 198 50 45 112 59 175 38z m-1557 -530 c32 -25 35 -68 5 -95 -19 -17
-42 -19 -258 -22 -260 -4 -306 3 -321 44 -11 29 1 68 27 83 11 6 112 11 269
11 239 0 253 -1 278 -21z m0 -960 c29 -23 33 -54 10 -87 -15 -22 -17 -22 -282
-22 -147 0 -272 4 -278 8 -38 25 -36 88 3 111 11 6 112 11 269 11 239 0 253
-1 278 -21z"/>
<path d="M5976 5357 c-10 -8 -59 -94 -110 -193 -114 -224 -100 -214 -362 -253
-199 -30 -222 -39 -210 -84 3 -15 60 -76 132 -144 134 -126 174 -179 174 -234
0 -19 -14 -116 -31 -217 -44 -255 -43 -256 202 -125 153 82 168 88 224 88 56
0 70 -5 224 -88 246 -131 247 -131 203 127 -18 100 -32 198 -32 217 0 52 31
93 176 234 190 184 189 185 -74 225 -269 40 -254 30 -369 255 -96 188 -116
215 -147 192z"/>
</g>
</svg>
