<?xml version="1.0" standalone="no"?>
<!DOCTYPE svg PUBLIC "-//W3C//DTD SVG 20010904//EN"
 "http://www.w3.org/TR/2001/REC-SVG-20010904/DTD/svg10.dtd">
<svg version="1.0" xmlns="http://www.w3.org/2000/svg"
 width="1080.000000pt" height="1080.000000pt" viewBox="0 0 1080.000000 1080.000000"
 preserveAspectRatio="xMidYMid meet">

<g transform="translate(0.000000,1080.000000) scale(0.100000,-0.100000)"
fill="#000000" stroke="none">
<path d="M3669 7547 c-32 -25 -39 -56 -39 -181 l0 -126 -141 0 c-126 0 -145
-2 -176 -21 -55 -34 -73 -82 -73 -194 l0 -95 1415 0 1415 0 0 92 c0 108 -21
165 -74 198 -29 18 -50 20 -175 20 l-141 0 0 119 c0 123 -8 165 -38 187 -27
21 -70 16 -97 -11 -24 -23 -25 -29 -25 -160 l0 -135 -235 0 -235 0 0 125 c0
162 -15 195 -86 195 -14 0 -36 -11 -49 -25 -24 -23 -25 -29 -25 -160 l0 -135
-235 0 -235 0 0 125 c0 93 -4 134 -15 155 -27 53 -103 53 -130 0 -11 -21 -15
-62 -15 -155 l0 -125 -235 0 -235 0 0 135 c0 131 -1 137 -25 160 -26 27 -70
32 -96 12z"/>
<path d="M3242 5681 c3 -1083 3 -1090 24 -1117 11 -15 33 -37 48 -48 27 -21
36 -21 717 -21 l690 0 27 35 c61 79 133 132 235 173 50 21 72 22 487 27 l435
5 80 45 80 46 3 972 2 972 -1415 0 -1415 0 2 -1089z m1463 676 c29 -17 65 -59
140 -167 95 -138 102 -145 145 -157 25 -6 101 -26 170 -44 116 -30 128 -35
166 -75 48 -48 62 -99 45 -160 -7 -25 -50 -86 -120 -170 l-109 -132 8 -166 c9
-182 5 -211 -39 -260 -33 -36 -79 -56 -129 -56 -22 0 -105 24 -193 57 -85 31
-159 56 -164 56 -6 0 -81 -25 -168 -56 -88 -32 -174 -57 -195 -57 -60 0 -123
38 -150 90 -22 44 -22 51 -16 220 l7 175 -102 124 c-56 68 -108 136 -116 152
-35 67 -4 173 62 212 18 10 106 37 195 60 l161 42 89 130 c49 71 99 141 111
154 50 54 135 66 202 28z"/>
<path d="M4511 6070 c-56 -82 -110 -154 -119 -159 -9 -5 -71 -23 -137 -41
-194 -51 -225 -61 -225 -70 0 -5 52 -71 116 -147 l115 -138 -5 -192 c-5 -150
-3 -193 7 -193 6 0 90 28 185 62 l173 62 62 -21 c34 -12 117 -41 184 -64 67
-24 124 -42 127 -39 3 3 1 86 -4 184 -6 117 -6 185 0 197 6 10 60 78 120 151
61 73 110 136 110 140 0 8 7 6 -190 58 -85 23 -165 48 -177 55 -12 8 -66 80
-120 160 -54 79 -103 145 -109 145 -6 0 -56 -67 -113 -150z"/>
<path d="M6721 5094 c-21 -27 -21 -32 -21 -836 l0 -810 30 -30 c25 -24 36 -29
58 -23 15 3 36 15 47 26 20 19 20 35 23 817 1 438 0 807 -3 820 -15 63 -96 84
-134 36z"/>
<path d="M6250 4748 c-174 -96 -304 -161 -333 -168 -28 -6 -209 -10 -442 -10
-373 0 -397 -1 -449 -21 -73 -27 -148 -96 -183 -167 -87 -178 29 -395 231
-431 36 -7 213 -11 446 -11 326 0 394 -2 433 -16 25 -8 166 -83 313 -165 147
-82 269 -147 271 -146 2 2 2 294 1 648 l-3 644 -285 -157z m108 -198 c24 -23
29 -68 11 -102 -14 -26 -186 -108 -227 -108 -21 0 -37 8 -51 26 -46 58 -21 98
97 159 97 49 137 55 170 25z m-781 -164 c19 -23 24 -36 19 -60 -12 -63 -24
-66 -274 -66 -218 0 -227 1 -249 22 -14 13 -23 33 -23 52 0 36 6 46 40 70 22
15 49 17 243 14 l219 -3 25 -29z m323 -6 c6 -10 10 -66 10 -125 0 -99 -2 -107
-25 -130 -30 -30 -64 -32 -99 -4 -25 20 -26 23 -26 133 0 121 10 151 53 158
32 5 76 -11 87 -32z"/>
<path d="M7378 4812 c-85 -86 -94 -109 -57 -156 16 -20 29 -26 58 -26 34 0 45
8 114 79 86 88 95 114 52 156 -45 46 -78 36 -167 -53z"/>
<path d="M7010 4255 c0 -118 4 -215 9 -215 13 0 82 49 102 73 26 31 49 103 49
151 0 56 -40 136 -86 174 -74 61 -74 61 -74 -183z"/>
<path d="M7543 4333 c-55 -11 -72 -97 -27 -132 23 -18 41 -21 131 -21 97 0
106 2 128 25 32 31 32 66 1 102 -23 27 -29 28 -118 30 -51 0 -103 -1 -115 -4z"/>
<path d="M7325 3865 c-43 -42 -34 -69 54 -158 67 -68 83 -80 111 -80 24 0 40
8 57 27 40 47 32 71 -55 158 -89 89 -122 99 -167 53z"/>
<path d="M5210 3411 l0 -370 26 -20 c23 -18 41 -21 131 -21 97 0 106 2 128 25
22 21 25 33 25 100 l0 77 -59 61 c-95 100 -95 102 -99 325 l-4 192 -74 0 -74
0 0 -369z"/>
<path d="M5520 3665 l0 -115 89 0 c74 0 92 3 115 21 25 19 26 25 26 115 l0 94
-115 0 -115 0 0 -115z"/>
</g>
</svg>
